<?xml version="1.0" standalone="no"?>
<!DOCTYPE svg PUBLIC "-//W3C//DTD SVG 20010904//EN"
 "http://www.w3.org/TR/2001/REC-SVG-20010904/DTD/svg10.dtd">
<svg version="1.0" xmlns="http://www.w3.org/2000/svg"
 width="36.000000pt" height="36.000000pt" viewBox="0 0 36.000000 36.000000"
 preserveAspectRatio="xMidYMid meet">

<g transform="translate(0.000000,36.000000) scale(0.100000,-0.100000)"
fill="#000000" stroke="none">
<path d="M138 324 c-35 -18 -62 -69 -54 -100 3 -12 24 -43 45 -68 21 -25 42
-51 45 -58 5 -11 7 -11 12 0 3 7 23 33 44 57 20 24 40 55 44 69 9 35 -16 82
-54 101 -36 18 -47 18 -82 -1z m62 -84 c0 -13 -7 -20 -20 -20 -13 0 -20 7 -20
20 0 13 7 20 20 20 13 0 20 -7 20 -20z"/>
<path d="M60 140 c-6 -12 -18 -39 -25 -61 l-14 -39 159 0 160 0 -20 52 c-23
61 -33 73 -54 65 -20 -8 -21 -27 -1 -27 14 0 35 -37 35 -61 0 -5 -52 -9 -120
-9 -68 0 -120 4 -120 9 0 25 21 61 36 61 20 0 13 24 -9 28 -8 2 -21 -6 -27
-18z"/>
</g>
</svg>
