<?xml version="1.0" standalone="no"?>
<!DOCTYPE svg PUBLIC "-//W3C//DTD SVG 20010904//EN"
 "http://www.w3.org/TR/2001/REC-SVG-20010904/DTD/svg10.dtd">
<svg version="1.0" xmlns="http://www.w3.org/2000/svg"
 width="36.000000pt" height="36.000000pt" viewBox="0 0 36.000000 36.000000"
 preserveAspectRatio="xMidYMid meet">

<g transform="translate(0.000000,36.000000) scale(0.100000,-0.100000)"
fill="#000000" stroke="none">
<path d="M103 300 c-87 -52 -83 -198 6 -245 38 -19 104 -19 142 0 89 47 93
193 6 245 -42 26 -112 26 -154 0z m157 -70 c0 -5 -18 -19 -40 -30 l-40 -20
-40 20 c-22 11 -40 25 -40 30 0 6 34 10 80 10 46 0 80 -4 80 -10z m-115 -57
c33 -16 37 -16 70 0 20 9 38 17 40 17 3 0 5 -16 5 -35 l0 -35 -80 0 -80 0 0
35 c0 19 2 35 5 35 2 0 20 -8 40 -17z"/>
</g>
</svg>
