<?xml version="1.0" standalone="no"?>
<!DOCTYPE svg PUBLIC "-//W3C//DTD SVG 20010904//EN"
 "http://www.w3.org/TR/2001/REC-SVG-20010904/DTD/svg10.dtd">
<svg version="1.0" xmlns="http://www.w3.org/2000/svg"
 width="36.000000pt" height="36.000000pt" viewBox="0 0 36.000000 36.000000"
 preserveAspectRatio="xMidYMid meet">

<g transform="translate(0.000000,36.000000) scale(0.100000,-0.100000)"
fill="#000000" stroke="none">
<path d="M100 298 c-36 -24 -50 -48 -29 -48 7 0 21 7 31 17 17 15 18 15 18 0
0 -24 11 -21 37 11 l23 27 23 -27 c27 -33 41 -36 34 -7 l-6 21 23 -21 c25 -23
50 -28 44 -8 -9 27 -71 57 -118 57 -32 0 -57 -7 -80 -22z"/>
<path d="M30 206 c0 -8 5 -27 11 -43 l11 -28 12 24 13 23 6 -23 c8 -30 24 -16
33 30 5 25 4 32 -4 27 -7 -4 -12 -15 -12 -24 -1 -12 -5 -10 -15 8 l-14 25 -10
-25 c-6 -17 -10 -19 -10 -8 -1 21 -21 35 -21 14z"/>
<path d="M138 214 c-7 -13 11 -74 22 -74 6 0 10 7 10 15 0 20 10 19 25 -2 12
-16 14 -14 23 17 5 19 6 40 3 45 -3 6 -7 2 -9 -7 -2 -10 -6 -18 -9 -18 -3 0
-12 8 -19 18 -12 16 -13 15 -14 -8 l-1 -25 -13 24 c-7 13 -15 20 -18 15z"/>
<path d="M244 189 c9 -46 25 -60 33 -30 l6 23 13 -23 12 -24 12 29 c14 37 8
72 -7 37 l-10 -25 -7 25 -6 24 -15 -25 c-10 -18 -14 -20 -15 -8 0 9 -5 20 -12
24 -8 5 -9 -2 -4 -27z"/>
<path d="M62 98 c9 -28 71 -58 118 -58 47 0 109 30 118 58 5 17 -18 15 -40 -5
-17 -15 -18 -15 -18 0 0 24 -11 21 -37 -10 l-23 -28 -23 28 c-27 32 -41 35
-34 6 l6 -21 -23 21 c-25 23 -50 28 -44 9z"/>
</g>
</svg>
