<?xml version="1.0" standalone="no"?>
<!DOCTYPE svg PUBLIC "-//W3C//DTD SVG 20010904//EN"
 "http://www.w3.org/TR/2001/REC-SVG-20010904/DTD/svg10.dtd">
<svg version="1.0" xmlns="http://www.w3.org/2000/svg"
 width="150.000000pt" height="140.000000pt" viewBox="0 0 150.000000 140.000000"
 preserveAspectRatio="xMidYMid meet">

<g transform="translate(0.000000,140.000000) scale(0.100000,-0.100000)"
fill="#000000" stroke="none">
<path d="M291 1192 c-17 -32 16 -174 62 -258 l16 -32 -47 -36 c-47 -37 -102
-113 -102 -141 0 -8 16 -22 35 -31 44 -20 49 -28 30 -44 -8 -7 -15 -18 -15
-25 0 -8 -4 -15 -10 -17 -5 -1 -13 -24 -16 -49 l-6 -46 44 -6 c100 -14 209
-98 263 -203 34 -67 99 -138 139 -154 35 -13 97 -13 132 0 40 16 105 87 139
154 54 105 163 189 263 203 l44 6 -6 39 c-6 39 -19 68 -44 99 -11 14 -9 19 10
31 13 8 31 17 41 21 9 3 17 13 17 22 0 23 -56 108 -86 130 -73 53 -70 48 -46
83 12 16 22 35 22 41 0 6 6 25 14 43 23 56 37 148 25 170 -16 30 -79 18 -173
-32 -85 -44 -96 -46 -129 -26 -12 8 -52 20 -89 27 -56 10 -80 10 -135 0 -38
-7 -78 -19 -90 -27 -33 -20 -44 -18 -129 26 -94 50 -157 62 -173 32z m306
-548 c44 -45 52 -58 42 -70 -31 -37 -119 6 -119 58 0 28 10 68 17 68 3 0 30
-25 60 -56z m377 34 c11 -43 6 -69 -19 -93 -27 -28 -76 -33 -94 -11 -10 12 -2
25 41 70 29 30 56 56 59 56 4 0 9 -10 13 -22z m-163 -318 c25 -14 24 -38 -3
-61 -32 -25 -86 -24 -115 3 -27 26 -29 43 -5 57 22 14 98 14 123 1z"/>
</g>
</svg>
